<svg width="166" height="35" viewBox="0 0 166 35" fill="none" xmlns="http://www.w3.org/2000/svg">
<path d="M53.8379 16.7246C53.8379 18.3327 53.5286 19.6771 52.9102 20.7578C52.2982 21.832 51.4095 22.6426 50.2441 23.1895C49.0788 23.7298 47.6758 24 46.0352 24H41.9922V9.72266H46.4746C47.972 9.72266 49.2708 9.98958 50.3711 10.5234C51.4714 11.0508 52.3242 11.8353 52.9297 12.877C53.5352 13.9121 53.8379 15.1947 53.8379 16.7246ZM50.6934 16.8027C50.6934 15.748 50.5371 14.8822 50.2246 14.2051C49.9186 13.5215 49.4629 13.0169 48.8574 12.6914C48.2585 12.3659 47.5163 12.2031 46.6309 12.2031H45.0195V21.5H46.3184C47.7962 21.5 48.8932 21.1061 49.6094 20.3184C50.332 19.5306 50.6934 18.3587 50.6934 16.8027ZM61.0352 12.8574C62.5 12.8574 63.623 13.1764 64.4043 13.8145C65.1855 14.4525 65.5762 15.4225 65.5762 16.7246V24H63.4961L62.9199 22.5156H62.8418C62.5293 22.9062 62.2103 23.2253 61.8848 23.4727C61.5592 23.7201 61.1849 23.9023 60.7617 24.0195C60.3385 24.1367 59.8242 24.1953 59.2188 24.1953C58.5742 24.1953 57.9948 24.0716 57.4805 23.8242C56.9727 23.5768 56.5723 23.1992 56.2793 22.6914C55.9863 22.1771 55.8398 21.526 55.8398 20.7383C55.8398 19.5794 56.2467 18.7266 57.0605 18.1797C57.8743 17.6263 59.0951 17.3203 60.7227 17.2617L62.6172 17.2031V16.7246C62.6172 16.1517 62.4674 15.7318 62.168 15.4648C61.8685 15.1979 61.4518 15.0645 60.918 15.0645C60.3906 15.0645 59.873 15.1393 59.3652 15.2891C58.8574 15.4388 58.3496 15.6276 57.8418 15.8555L56.8555 13.8438C57.4349 13.5378 58.0827 13.2969 58.7988 13.1211C59.5215 12.9453 60.2669 12.8574 61.0352 12.8574ZM62.6172 18.9414L61.4648 18.9805C60.5013 19.0065 59.8307 19.179 59.4531 19.498C59.082 19.8171 58.8965 20.237 58.8965 20.7578C58.8965 21.2135 59.0299 21.5391 59.2969 21.7344C59.5638 21.9232 59.9121 22.0176 60.3418 22.0176C60.9798 22.0176 61.5169 21.8288 61.9531 21.4512C62.3958 21.0736 62.6172 20.5365 62.6172 19.8398V18.9414ZM73.252 21.8223C73.5775 21.8223 73.8932 21.7897 74.1992 21.7246C74.5117 21.6595 74.821 21.5781 75.127 21.4805V23.6973C74.8079 23.8405 74.4108 23.9577 73.9355 24.0488C73.4668 24.1465 72.9525 24.1953 72.3926 24.1953C71.7415 24.1953 71.1556 24.0911 70.6348 23.8828C70.1204 23.668 69.7135 23.3001 69.4141 22.7793C69.1211 22.252 68.9746 21.5195 68.9746 20.582V15.3184H67.5488V14.0586L69.1895 13.0625L70.0488 10.7578H71.9531V13.082H75.0098V15.3184H71.9531V20.582C71.9531 20.9987 72.0703 21.3112 72.3047 21.5195C72.5456 21.7214 72.8613 21.8223 73.252 21.8223ZM81.8164 12.8574C83.2812 12.8574 84.4043 13.1764 85.1855 13.8145C85.9668 14.4525 86.3574 15.4225 86.3574 16.7246V24H84.2773L83.7012 22.5156H83.623C83.3105 22.9062 82.9915 23.2253 82.666 23.4727C82.3405 23.7201 81.9661 23.9023 81.543 24.0195C81.1198 24.1367 80.6055 24.1953 80 24.1953C79.3555 24.1953 78.776 24.0716 78.2617 23.8242C77.7539 23.5768 77.3535 23.1992 77.0605 22.6914C76.7676 22.1771 76.6211 21.526 76.6211 20.7383C76.6211 19.5794 77.028 18.7266 77.8418 18.1797C78.6556 17.6263 79.8763 17.3203 81.5039 17.2617L83.3984 17.2031V16.7246C83.3984 16.1517 83.2487 15.7318 82.9492 15.4648C82.6497 15.1979 82.2331 15.0645 81.6992 15.0645C81.1719 15.0645 80.6543 15.1393 80.1465 15.2891C79.6387 15.4388 79.1309 15.6276 78.623 15.8555L77.6367 13.8438C78.2161 13.5378 78.8639 13.2969 79.5801 13.1211C80.3027 12.9453 81.0482 12.8574 81.8164 12.8574ZM83.3984 18.9414L82.2461 18.9805C81.2826 19.0065 80.612 19.179 80.2344 19.498C79.8633 19.8171 79.6777 20.237 79.6777 20.7578C79.6777 21.2135 79.8112 21.5391 80.0781 21.7344C80.3451 21.9232 80.6934 22.0176 81.123 22.0176C81.7611 22.0176 82.2982 21.8288 82.7344 21.4512C83.1771 21.0736 83.3984 20.5365 83.3984 19.8398V18.9414ZM93.8672 24.1953C92.7865 24.1953 91.8652 24 91.1035 23.6094C90.3418 23.2122 89.7624 22.6003 89.3652 21.7734C88.9681 20.9466 88.7695 19.8887 88.7695 18.5996C88.7695 17.265 88.9941 16.1777 89.4434 15.3379C89.8991 14.4915 90.5273 13.8698 91.3281 13.4727C92.1354 13.0755 93.0697 12.877 94.1309 12.877C94.8861 12.877 95.5371 12.9518 96.084 13.1016C96.6374 13.2448 97.1191 13.4173 97.5293 13.6191L96.6504 15.9238C96.1816 15.735 95.7454 15.582 95.3418 15.4648C94.9382 15.3411 94.5345 15.2793 94.1309 15.2793C93.61 15.2793 93.1771 15.403 92.832 15.6504C92.487 15.8913 92.2298 16.2559 92.0605 16.7441C91.8913 17.2324 91.8066 17.8444 91.8066 18.5801C91.8066 19.3027 91.8978 19.9017 92.0801 20.377C92.2624 20.8522 92.526 21.207 92.8711 21.4414C93.2161 21.6693 93.6361 21.7832 94.1309 21.7832C94.7493 21.7832 95.2995 21.7018 95.7812 21.5391C96.263 21.3698 96.7318 21.1354 97.1875 20.8359V23.3848C96.7318 23.6712 96.2533 23.8763 95.752 24C95.2572 24.1302 94.6289 24.1953 93.8672 24.1953ZM105.82 12.877C105.97 12.877 106.143 12.8867 106.338 12.9062C106.54 12.9193 106.702 12.9388 106.826 12.9648L106.602 15.7578C106.504 15.7253 106.364 15.7025 106.182 15.6895C106.006 15.6699 105.853 15.6602 105.723 15.6602C105.339 15.6602 104.964 15.709 104.6 15.8066C104.242 15.9043 103.919 16.0638 103.633 16.2852C103.346 16.5 103.118 16.7865 102.949 17.1445C102.786 17.4961 102.705 17.929 102.705 18.4434V24H99.7266V13.082H101.982L102.422 14.918H102.568C102.783 14.5469 103.05 14.2083 103.369 13.9023C103.695 13.5898 104.062 13.3424 104.473 13.1602C104.889 12.9714 105.339 12.877 105.82 12.877ZM113.281 12.8574C114.746 12.8574 115.869 13.1764 116.65 13.8145C117.432 14.4525 117.822 15.4225 117.822 16.7246V24H115.742L115.166 22.5156H115.088C114.775 22.9062 114.456 23.2253 114.131 23.4727C113.805 23.7201 113.431 23.9023 113.008 24.0195C112.585 24.1367 112.07 24.1953 111.465 24.1953C110.82 24.1953 110.241 24.0716 109.727 23.8242C109.219 23.5768 108.818 23.1992 108.525 22.6914C108.232 22.1771 108.086 21.526 108.086 20.7383C108.086 19.5794 108.493 18.7266 109.307 18.1797C110.12 17.6263 111.341 17.3203 112.969 17.2617L114.863 17.2031V16.7246C114.863 16.1517 114.714 15.7318 114.414 15.4648C114.115 15.1979 113.698 15.0645 113.164 15.0645C112.637 15.0645 112.119 15.1393 111.611 15.2891C111.104 15.4388 110.596 15.6276 110.088 15.8555L109.102 13.8438C109.681 13.5378 110.329 13.2969 111.045 13.1211C111.768 12.9453 112.513 12.8574 113.281 12.8574ZM114.863 18.9414L113.711 18.9805C112.747 19.0065 112.077 19.179 111.699 19.498C111.328 19.8171 111.143 20.237 111.143 20.7578C111.143 21.2135 111.276 21.5391 111.543 21.7344C111.81 21.9232 112.158 22.0176 112.588 22.0176C113.226 22.0176 113.763 21.8288 114.199 21.4512C114.642 21.0736 114.863 20.5365 114.863 19.8398V18.9414ZM125.498 21.8223C125.824 21.8223 126.139 21.7897 126.445 21.7246C126.758 21.6595 127.067 21.5781 127.373 21.4805V23.6973C127.054 23.8405 126.657 23.9577 126.182 24.0488C125.713 24.1465 125.199 24.1953 124.639 24.1953C123.988 24.1953 123.402 24.0911 122.881 23.8828C122.367 23.668 121.96 23.3001 121.66 22.7793C121.367 22.252 121.221 21.5195 121.221 20.582V15.3184H119.795V14.0586L121.436 13.0625L122.295 10.7578H124.199V13.082H127.256V15.3184H124.199V20.582C124.199 20.9987 124.316 21.3112 124.551 21.5195C124.792 21.7214 125.107 21.8223 125.498 21.8223ZM134.092 12.877C135.101 12.877 135.97 13.0723 136.699 13.4629C137.428 13.847 137.992 14.4069 138.389 15.1426C138.786 15.8783 138.984 16.7767 138.984 17.8379V19.2832H131.943C131.976 20.123 132.227 20.7839 132.695 21.2656C133.171 21.7409 133.828 21.9785 134.668 21.9785C135.365 21.9785 136.003 21.9069 136.582 21.7637C137.161 21.6204 137.757 21.4056 138.369 21.1191V23.4238C137.829 23.6908 137.262 23.8861 136.67 24.0098C136.084 24.1335 135.371 24.1953 134.531 24.1953C133.438 24.1953 132.467 23.9935 131.621 23.5898C130.781 23.1862 130.12 22.571 129.639 21.7441C129.163 20.9173 128.926 19.8757 128.926 18.6191C128.926 17.3431 129.141 16.2819 129.57 15.4355C130.007 14.5827 130.612 13.9447 131.387 13.5215C132.161 13.0918 133.063 12.877 134.092 12.877ZM134.111 14.9961C133.532 14.9961 133.05 15.1816 132.666 15.5527C132.288 15.9238 132.07 16.5065 132.012 17.3008H136.191C136.185 16.8581 136.104 16.4642 135.947 16.1191C135.798 15.7741 135.57 15.5007 135.264 15.2988C134.964 15.097 134.58 14.9961 134.111 14.9961ZM150.088 13.082V24H147.109V13.082H150.088ZM148.604 8.80469C149.046 8.80469 149.427 8.90885 149.746 9.11719C150.065 9.31901 150.225 9.69987 150.225 10.2598C150.225 10.8132 150.065 11.1973 149.746 11.4121C149.427 11.6204 149.046 11.7246 148.604 11.7246C148.154 11.7246 147.77 11.6204 147.451 11.4121C147.139 11.1973 146.982 10.8132 146.982 10.2598C146.982 9.69987 147.139 9.31901 147.451 9.11719C147.77 8.90885 148.154 8.80469 148.604 8.80469ZM163.145 18.5215C163.145 19.4329 163.021 20.2402 162.773 20.9434C162.533 21.6465 162.178 22.2422 161.709 22.7305C161.247 23.2122 160.687 23.5768 160.029 23.8242C159.378 24.0716 158.643 24.1953 157.822 24.1953C157.054 24.1953 156.348 24.0716 155.703 23.8242C155.065 23.5768 154.508 23.2122 154.033 22.7305C153.564 22.2422 153.2 21.6465 152.939 20.9434C152.686 20.2402 152.559 19.4329 152.559 18.5215C152.559 17.3105 152.773 16.2852 153.203 15.4453C153.633 14.6055 154.245 13.9674 155.039 13.5312C155.833 13.0951 156.781 12.877 157.881 12.877C158.903 12.877 159.808 13.0951 160.596 13.5312C161.39 13.9674 162.012 14.6055 162.461 15.4453C162.917 16.2852 163.145 17.3105 163.145 18.5215ZM155.596 18.5215C155.596 19.2376 155.674 19.8398 155.83 20.3281C155.986 20.8164 156.23 21.1842 156.562 21.4316C156.895 21.679 157.327 21.8027 157.861 21.8027C158.389 21.8027 158.815 21.679 159.141 21.4316C159.473 21.1842 159.714 20.8164 159.863 20.3281C160.02 19.8398 160.098 19.2376 160.098 18.5215C160.098 17.7988 160.02 17.1999 159.863 16.7246C159.714 16.2428 159.473 15.8815 159.141 15.6406C158.809 15.3997 158.376 15.2793 157.842 15.2793C157.054 15.2793 156.481 15.5495 156.123 16.0898C155.771 16.6302 155.596 17.4408 155.596 18.5215Z" fill="#FFFEFE"/>
<path d="M140.986 22.6035C140.986 21.9915 141.152 21.5618 141.484 21.3145C141.823 21.0671 142.23 20.9434 142.705 20.9434C143.167 20.9434 143.564 21.0671 143.896 21.3145C144.235 21.5618 144.404 21.9915 144.404 22.6035C144.404 23.1895 144.235 23.6126 143.896 23.873C143.564 24.1335 143.167 24.2637 142.705 24.2637C142.23 24.2637 141.823 24.1335 141.484 23.873C141.152 23.6126 140.986 23.1895 140.986 22.6035Z" fill="#0478BE"/>
<path d="M17.5 0L32.6554 8.75V26.25L17.5 35L2.34456 26.25V8.75L17.5 0Z" fill="#005F99"/>
<path d="M17.499 6.99994L26.5923 12.2499V22.7499L17.499 27.9999L8.40576 22.7499V12.2499L17.499 6.99994Z" fill="#0478BE"/>
<path d="M17.4995 14L20.5306 15.75V19.25L17.4995 21L14.4684 19.25V15.75L17.4995 14Z" fill="#1398EA"/>
</svg>
